<svg width="111" height="24" viewBox="0 0 111 24" fill="none" xmlns="http://www.w3.org/2000/svg">
<g clip-path="url(#clip0_28_1261)">
<path d="M14.0727 18.0544C12.1636 17.3453 10.2 17.2362 8.39999 17.7271C7.14545 18.0544 5.94545 18.7089 4.85455 19.5271L4.0909 20.1817L3.87273 20.3998L4.36363 20.8362C4.41818 20.8362 4.41818 20.8908 4.47273 20.9453C4.58182 21.0544 4.69091 21.1089 4.85455 21.218L5.18181 21.4362L5.50909 21.1635C5.56363 21.1089 5.67272 20.9998 5.78181 20.9453C6.76363 20.1271 7.85454 19.5817 8.99999 19.3089C10.4727 18.9271 12.0545 18.9817 13.6364 19.5817C14.9454 20.0726 17.6182 20.6726 20.8364 19.3089L20.9455 19.2544L21.1091 19.0908C21.1091 19.0362 21.1636 19.0362 21.2182 18.9817C21.4909 18.6544 21.7636 18.3271 21.9818 17.9453L23.0727 16.2544L21.3273 17.2362C18.7636 18.6544 16.4182 18.9271 14.0727 18.0544Z" fill="#0051FF"/>
<path d="M6.59999 12.1637C8.07272 11.7819 9.65454 11.8365 11.2364 12.4365C12.9818 13.091 17.4545 14.0183 22.4727 9.49101L23.2909 8.67282L23.3454 8.61828L23.5636 8.4001L23.4545 8.12737C23.4 7.90919 23.2909 7.63646 23.1818 7.36373L22.9091 6.6001L22.3636 7.14555C22.3091 7.25464 22.2 7.30919 22.0909 7.41828C19.6909 9.87282 15.9818 12.3819 11.7273 10.8546C9.81817 10.1456 7.85454 10.0365 6.05454 10.5274C4.30909 11.0183 2.78181 11.9455 1.36363 13.2546V13.2001L0.545448 14.0728C0.545448 14.1274 0.490912 14.1274 0.436367 14.1819L0.27272 14.3455L0.327269 14.5637C0.381815 14.8365 0.490902 15.1092 0.545448 15.3819L0.872726 16.2546L1.41818 15.5455C1.47273 15.4365 1.58181 15.3819 1.63636 15.2728C2.78181 14.2365 4.36363 12.7637 6.59999 12.1637Z" fill="#0051FF"/>
<path d="M1.3091 11.1817C2.56365 9.87257 3.98182 9.05439 5.50909 8.61803C6.98182 8.23621 8.56364 8.29075 10.1455 8.89075C15.0545 10.6908 19.3091 7.7453 21.1636 6.16348L21.8727 5.45439L22.1455 5.2362L21.9273 4.90893C21.7636 4.7453 21.6546 4.52711 21.4909 4.30893L21.1636 3.87256L20.7818 4.25438C20.7273 4.30893 20.6182 4.41801 20.5636 4.47256C18.2727 6.65439 14.7273 8.89075 10.6909 7.36348C8.78182 6.65439 6.81818 6.5453 5.01819 7.03621C3.87273 7.36348 2.78182 7.90893 1.69091 8.61803L0.545455 9.5453C0.436364 9.65439 0.381818 9.70893 0.272727 9.81803L0.163646 9.92712V10.0908C0.109101 10.4726 0.109094 10.8544 0.0545487 11.1817L0 12.5453L0.927278 11.5635C1.03637 11.4544 1.14547 11.2908 1.3091 11.1817Z" fill="#0051FF"/>
<path d="M15.6545 21.7638C15.4909 21.7093 15.3818 21.6547 15.2182 21.6002C13.3091 20.8911 11.3454 20.782 9.54544 21.2729C9.16363 21.382 8.78181 21.4911 8.39999 21.6547L7.0909 22.2547L6.76363 22.4184L7.85454 22.8002C8.18181 22.9093 8.50908 23.0184 8.83635 23.1275L8.99999 23.182L9.16363 23.1275C9.32726 23.0729 9.4909 22.9638 9.65454 22.9638C9.76363 22.9638 9.87272 22.9093 9.98181 22.8547C11.2909 22.5275 12.7091 22.5275 14.2364 23.0184C14.4 23.0729 14.5091 23.1275 14.6727 23.182L14.9454 23.2911L15.1091 23.2366C15.4909 23.1275 15.9273 23.0184 16.2545 22.8547L17.7818 22.3093L16.2 21.9275C16.0364 21.8729 15.8182 21.8184 15.6545 21.7638Z" fill="#0051FF"/>
<path d="M24 10.4727L23.1818 11.2908C23.0727 11.3999 22.9636 11.509 22.8545 11.6181C20.6182 13.7454 17.0182 16.0363 12.9818 14.509C11.0727 13.7999 9.10908 13.6908 7.30908 14.1817C5.61817 14.6727 4.0909 15.5454 2.72726 16.8545L2.01818 17.6181L1.8 17.8908L2.01818 18.2181C2.18182 18.4363 2.29091 18.5999 2.4 18.8181L2.72726 19.309L3.10909 18.8181C3.16363 18.7636 3.27272 18.6545 3.32727 18.5999C4.63636 17.1817 6.05454 16.309 7.6909 15.8727C9.16363 15.4908 10.7454 15.5454 12.3273 16.1454C13.6909 16.6363 15.1091 16.7999 16.5273 16.6363C19.0364 16.3636 21.5454 14.9454 23.4 13.3636C23.5091 13.2545 23.6182 13.1999 23.7273 13.0908L23.8909 12.9272V12.7636C23.8909 12.4363 23.9454 12.0545 23.9454 11.7272L24 10.4727Z" fill="#0051FF"/>
<path d="M3.27273 5.45476C3.6 5.29113 3.98183 5.18203 4.3091 5.07294C5.78182 4.69112 7.36363 4.74567 8.94545 5.34567C9.98182 5.72749 11.0182 5.89113 12.1636 5.89113C14.4545 5.89113 16.7455 5.07294 18.8727 3.49112L19.6909 2.83657L19.9636 2.61839L19.4727 2.23657C19.3091 2.07293 19.0909 1.9093 18.8727 1.80021L18.5455 1.58203L18.2727 1.80021C18.1636 1.85476 18.1091 1.96384 18 2.01839C15.1091 4.20021 12.2182 4.80021 9.49091 3.76385C7.52727 3.05476 5.56363 2.89112 3.6 3.49112C3.43637 3.54567 3.27273 3.60021 3.05455 3.65475L2.94546 3.7093L2.78182 3.87293C2.78182 3.92748 2.72728 3.92749 2.67274 3.98203C2.45456 4.3093 2.18182 4.58204 1.96364 4.90931L0.927277 6.49113L2.61819 5.6184C2.89092 5.6184 3.10909 5.50931 3.27273 5.45476Z" fill="#0051FF"/>
<path d="M7.74545 1.74544L7.90909 1.79999C8.61818 2.07272 9.70909 2.34545 11.0727 2.34545C12.4909 2.34545 13.8545 2.01817 15.2182 1.47272L16.9091 0.654535L15.7636 0.272727C15.4364 0.163636 15.1091 0.0545455 14.7273 0H14.5636L14.4 0.0545321C14.2364 0.109078 14.0727 0.218182 13.9091 0.272727C12.2727 0.872727 10.6364 0.981818 9.05454 0.545455C8.89091 0.490909 8.72727 0.436354 8.56364 0.381808L8.4 0.32726L8.23636 0.381808C7.90909 0.490899 7.58182 0.599995 7.25455 0.763631L6 1.30909L7.30909 1.6909C7.41818 1.63635 7.58182 1.6909 7.74545 1.74544Z" fill="#0051FF"/>
</g>
<path d="M41.682 16.2815H47.667V18.6215H39V6.02145H41.682V16.2815Z" fill="white"/>
<path d="M50.9454 7.37145C50.5734 7.37145 50.2554 7.23945 49.9914 6.97545C49.7274 6.71145 49.5954 6.39345 49.5954 6.02145C49.5954 5.65545 49.7274 5.34345 49.9914 5.08545C50.2554 4.82145 50.5734 4.68945 50.9454 4.68945C51.3114 4.68945 51.6234 4.82145 51.8814 5.08545C52.1454 5.34345 52.2774 5.65545 52.2774 6.02145C52.2774 6.39345 52.1454 6.71145 51.8814 6.97545C51.6234 7.23945 51.3114 7.37145 50.9454 7.37145ZM52.1604 8.72145V18.6215H49.7124V8.72145H52.1604Z" fill="white"/>
<path d="M61.3568 18.6215V13.0595C61.3568 11.4935 60.6758 10.7105 59.3138 10.7105C58.6538 10.7105 58.1198 10.9535 57.7118 11.4395C57.3038 11.9255 57.1028 12.5315 57.1088 13.2575V18.6215H54.6518V8.72145H57.0458L57.1088 10.2515C57.5828 9.13545 58.5458 8.57745 59.9978 8.57745C61.1978 8.57745 62.1338 8.94645 62.8058 9.68445C63.4778 10.4225 63.8138 11.4425 63.8138 12.7445V18.6215H61.3568Z" fill="white"/>
<path d="M75.4776 8.72145L71.9136 13.6715L75.4776 18.6215H72.7146L69.9966 14.8415H68.8536V18.6215H66.2886V5.68845H68.8536V12.5015H69.9966L72.7146 8.72145H75.4776Z" fill="white"/>
<path d="M83.8523 16.2995C84.6623 16.2995 85.3643 16.0955 85.9583 15.6875C86.5523 15.2795 86.9723 14.6915 87.2183 13.9235L89.8643 14.3285C89.5103 15.7085 88.7873 16.7945 87.6953 17.5865C86.6093 18.3725 85.3283 18.7655 83.8523 18.7655C82.9643 18.7655 82.1333 18.6185 81.3593 18.3245C80.5913 18.0245 79.9223 17.6015 79.3523 17.0555C78.7883 16.5095 78.3443 15.8315 78.0203 15.0215C77.6963 14.2055 77.5343 13.3055 77.5343 12.3215C77.5343 11.3375 77.6963 10.4405 78.0203 9.63045C78.3443 8.81445 78.7883 8.13345 79.3523 7.58745C79.9223 7.04145 80.5913 6.62145 81.3593 6.32745C82.1333 6.02745 82.9643 5.87745 83.8523 5.87745C85.3283 5.87745 86.6093 6.27345 87.6953 7.06545C88.7873 7.85145 89.5103 8.93445 89.8643 10.3145L87.2183 10.7195C86.9723 9.95145 86.5523 9.36345 85.9583 8.95545C85.3643 8.54745 84.6623 8.34345 83.8523 8.34345C82.7723 8.34345 81.8933 8.69445 81.2153 9.39645C80.5433 10.0925 80.2073 11.0675 80.2073 12.3215C80.2073 13.5755 80.5433 14.5535 81.2153 15.2555C81.8933 15.9515 82.7723 16.2995 83.8523 16.2995Z" fill="white"/>
<path d="M94.4624 8.72145V14.2835C94.4624 15.8495 95.1434 16.6325 96.5054 16.6325C97.1594 16.6325 97.6904 16.3895 98.0984 15.9035C98.5124 15.4175 98.7164 14.8115 98.7104 14.0855V8.72145H101.167V18.6215H98.7734L98.7104 17.0915C98.2244 18.2075 97.2584 18.7655 95.8124 18.7655C94.6124 18.7655 93.6764 18.3965 93.0044 17.6585C92.3384 16.9205 92.0054 15.9005 92.0054 14.5985V8.72145H94.4624Z" fill="white"/>
<path d="M109.798 15.8315L110.473 17.8475C109.825 18.4595 108.949 18.7655 107.845 18.7655C106.813 18.7655 105.991 18.4925 105.379 17.9465C104.767 17.3945 104.461 16.5905 104.461 15.5345V10.8275H103.336V8.72145H104.461V6.48945L106.909 6.19245V8.72145H109.762V10.8275H106.909V14.6615C106.909 15.2315 107.02 15.6455 107.242 15.9035C107.464 16.1615 107.818 16.2905 108.304 16.2905C108.58 16.2905 108.856 16.2515 109.132 16.1735C109.414 16.0955 109.636 15.9815 109.798 15.8315Z" fill="white"/>
<defs>
<clipPath id="clip0_28_1261">
<rect width="24" height="23.4545" fill="white"/>
</clipPath>
</defs>
</svg>
