<?xml version="1.0" encoding="utf-8"?><svg viewBox="0 0 471 291" xmlns="http://www.w3.org/2000/svg" xmlns:xlink="http://www.w3.org/1999/xlink"><style>:root>svg{display:none}:root>svg:target{display:block}</style><svg viewBox="0 0 32 48" id="favicon" xmlns="http://www.w3.org/2000/svg"><path d="M16 0v28.133c-1.573-.906-3.387-1.466-5.333-1.466C4.773 26.667 0 31.44 0 37.333 0 43.227 4.773 48 10.667 48c5.893 0 10.666-4.773 10.666-10.667V10.667H32V0H16zm-5.333 42.667c-2.934 0-5.334-2.4-5.334-5.334 0-2.933 2.4-5.333 5.334-5.333C13.6 32 16 34.4 16 37.333c0 2.934-2.4 5.334-5.333 5.334z"/></svg><svg viewBox="0 0 471 291" id="logo" xmlns="http://www.w3.org/2000/svg"><path d="M212.1 103.1c0-5.5 2-9.7 6-12.5 4-2.9 9.1-4.3 15.3-4.3 7.7 0 14.4 1.5 19.9 4.5v15.5c-5.6-3.6-11.6-5.3-18-5.2-3.2 0-4.8.8-4.8 2.4 0 .7.5 1.4 1.5 2 1 .6 2.2 1.1 3.8 1.6 1.5.5 3.2 1 5.1 1.5 1.9.5 3.8 1.3 5.7 2.1 1.9.9 3.6 1.9 5.1 3.1 1.5 1.2 2.8 2.8 3.8 4.8s1.5 4.3 1.5 6.8c0 11.7-7.6 17.6-22.8 17.6-8.3 0-15.5-1.7-21.6-5.1v-16.2c6.5 4.2 13.1 6.4 19.8 6.4 2.3 0 3.9-.2 4.8-.6.9-.4 1.4-1.1 1.4-2 0-.8-.6-1.6-1.9-2.3-1.3-.7-2.9-1.3-4.9-1.8-2-.5-4.1-1.2-6.4-2.1-2.3-.9-4.4-2-6.4-3.2-2-1.2-3.6-2.9-4.9-5.2-1.4-2.3-2-4.9-2-7.8zM262.8 87.5h41.1v14.1h-23.2v6.3h20.4v13.2h-20.4v6.4h23.7v14.3h-41.6V87.5zM345.1 141.8h-18.3l-19.9-54.3h19l10.1 33.3 10-33.3h19l-19.9 54.3zM368.9 87.5H410v14.1h-23.2v6.3h20.4v13.2h-20.4v6.4h23.7v14.3h-41.6V87.5zM435.1 141.8h-17.9V87.5h25.2c3.1 0 5.9.3 8.5.9 2.6.6 5 1.6 7.3 3s4.1 3.4 5.4 6c1.3 2.6 1.9 5.7 1.9 9.2 0 7.7-3.1 13.1-9.3 16.2l14 18.9h-19.7l-11.2-16.1h-4.2v16.2zm0-39.7v10.2h6.9c1.7 0 3.1-.5 4-1.4 1-.9 1.5-2.2 1.5-3.7 0-1.6-.5-2.8-1.5-3.7-1-.9-2.3-1.4-4-1.4h-6.9zM246.2 161.7H264V216h-17.8v-19.3h-14.7V216h-17.9v-54.3h17.9V181h14.7v-19.3zM296 216h-23.7v-54.3h17.9v15.5h5.8c15.6 0 23.4 6.5 23.4 19.4.1 13-7.7 19.4-23.4 19.4zm-5.8-24v9.3h5.7c1.7 0 3.1-.4 4.2-1.2 1.1-.8 1.7-1.9 1.7-3.5s-.6-2.7-1.7-3.5c-1.1-.8-2.5-1.2-4.2-1.2h-5.7v.1zm50.5 24h-17.9v-54.3h17.9V216zM382 199.7c0-3.5.2-6.6.5-9.2L364.1 216H349v-54.3h17.9v16.2c0 3.6-.2 6.7-.5 9.3l18.4-25.5h15.1V216H382v-16.3zm6.8-56.2c-3.9 2.4-8.6 3.6-14 3.6-5.5 0-10.2-1.2-14-3.6v11.1c4 2.6 8.7 4 14 4 5.4 0 10.1-1.3 14-4v-11.1zM259.8 236h15.9v54.3h-17.5v-24.8l-8.9 13.8h-9.4l-8.9-13.9v24.9h-17.5V236h15.9l15.1 23.7 15.3-23.7zM283.9 236h17.9v54.3h-17.9V236zM328 290.3h-17.9V236h25.2c3.1 0 5.9.3 8.5.9 2.6.6 5 1.6 7.3 3s4.1 3.4 5.4 6c1.3 2.6 1.9 5.7 1.9 9.2 0 7.7-3.1 13.1-9.3 16.2l14 18.9h-19.7l-11.2-16.1H328v16.2zm0-39.7v10.2h6.9c1.7 0 3.1-.5 4-1.4 1-.9 1.5-2.2 1.5-3.7 0-1.6-.5-2.8-1.5-3.7-1-.9-2.3-1.4-4-1.4H328zM399.9 250.5c0 8-6.5 14.5-14.5 14.5s-14.5-6.5-14.5-14.5 6.5-14.5 14.5-14.5 14.5 6.5 14.5 14.5zm-3.4 0c0-6.1-4.9-11.1-11.1-11.1-6.1 0-11.1 5-11.1 11.1 0 6.2 5 11.2 11.1 11.2 6.2-.1 11.1-5.1 11.1-11.2zm-7.5 1.8l3.5 4.9h-5.1l-3.1-4.4h-.4v4.4h-4.3v-13.5h7.5c2.8 0 4.6 1.7 4.6 4.6.1 2-1.1 3.4-2.7 4zm-2.9-5H384v2.3h2.1c.9 0 1.2-.4 1.2-1.2 0-.7-.4-1.1-1.2-1.1zM218.6 27.5h-6.5V7.6h18.6v19.9h-6.5V13.4h-5.6v14.1zM234 7.6h8.7c5.9 0 8.9 2.5 8.9 7.4s-3 7.3-8.9 7.3h-2.1v5.2H234V7.6zm11.1 7.4c0-1.3-.8-2-2.5-2h-2.1v3.9h2.1c1.7 0 2.5-.7 2.5-1.9zM255.9 25c-1.9-2-2.8-4.4-2.8-7.5 0-3 .9-5.5 2.8-7.5s4.5-2.9 8-2.9c3.4 0 6.1 1 8 2.9 1.9 2 2.8 4.4 2.8 7.5 0 3-.9 5.5-2.8 7.5s-4.5 2.9-8 2.9-6.1-.9-8-2.9zm10.9-4.2c.7-.8 1.1-1.9 1.1-3.3s-.4-2.5-1.1-3.3c-.7-.8-1.7-1.2-3-1.2s-2.3.4-3 1.2c-.7.8-1.1 1.9-1.1 3.3s.4 2.5 1.1 3.3c.7.8 1.7 1.2 3 1.2s2.3-.4 3-1.2zM281.3 31.4h-5.8V22h2.4c1.1-2.1 1.9-4.3 2.3-6.6.4-2.3.6-4.9.6-7.7h15.1V22h2.6v9.4h-5.8v-3.9h-11.3v3.9h-.1zm5.3-18.2c-.3 3.9-1 6.8-2 8.8h4.8v-8.8h-2.8zM329.4 12.3c.8 1.5 1.2 3.3 1.2 5.2 0 2-.4 3.7-1.2 5.2-.8 1.5-2 2.8-3.7 3.7-1.7.9-3.6 1.4-6 1.4-2.8 0-5-.7-6.8-2.1-1.8-1.4-2.9-3.2-3.4-5.4h-2.1v7.1h-6.6V7.5h6.6v7.1h2.1c.5-2.2 1.6-4 3.4-5.4 1.8-1.4 4-2.1 6.8-2.1 2.3 0 4.3.5 6 1.4 1.7 1 2.9 2.3 3.7 3.8zm-12.6 2c-.7.8-1.1 1.9-1.1 3.3s.4 2.5 1.1 3.3c.7.8 1.7 1.2 3 1.2s2.3-.4 3-1.2c.7-.8 1.1-1.9 1.1-3.3s-.4-2.5-1.1-3.3c-.7-.8-1.7-1.2-3-1.2s-2.3.4-3 1.2zM332.2 17.7c0-1.8.3-3.4.9-4.8.6-1.4 1.4-2.5 2.5-3.3 1.1-.8 2.2-1.4 3.5-1.8 1.3-.4 2.6-.6 4-.6 2.1 0 4.1.4 5.9 1.2v5.9c-1.3-.9-2.9-1.4-4.7-1.4-1.5 0-2.8.4-3.8 1.2-1 .8-1.5 2-1.5 3.7 0 1.5.5 2.6 1.5 3.3 1 .7 2.2 1.1 3.7 1.1 2.3 0 3.9-.5 5-1.4v6c-1.8.8-3.7 1.2-5.8 1.2-1.5 0-2.8-.2-4.1-.6-1.3-.4-2.5-1-3.5-1.8-1.1-.8-1.9-1.9-2.5-3.2-.7-1.4-1.1-2.9-1.1-4.7zM351.8 7.6h15.1v5.2h-8.5v2.3h7.5v4.8h-7.5v2.4h8.7v5.2h-15.2V7.6h-.1zM369.7 7.6h8.7c5.9 0 8.9 2.5 8.9 7.4s-3 7.3-8.9 7.3h-2.1v5.2h-6.6V7.6zm11.2 7.4c0-1.3-.8-2-2.5-2h-2.1v3.9h2.1c1.6 0 2.5-.7 2.5-1.9zM388.9 17.7c0-1.8.3-3.4.9-4.8.6-1.4 1.4-2.5 2.5-3.3 1.1-.8 2.2-1.4 3.5-1.8 1.3-.4 2.6-.6 4-.6 2.1 0 4.1.4 5.9 1.2v5.9c-1.3-.9-2.9-1.4-4.7-1.4-1.5 0-2.8.4-3.8 1.2-1 .8-1.5 2-1.5 3.7 0 1.5.5 2.6 1.5 3.3 1 .7 2.2 1.1 3.7 1.1 2.3 0 3.9-.5 5-1.4v6c-1.8.8-3.7 1.2-5.8 1.2-1.5 0-2.8-.2-4.1-.6-1.3-.4-2.5-1-3.5-1.8-1.1-.8-1.9-1.9-2.5-3.2-.8-1.4-1.1-2.9-1.1-4.7zM415 27.5h-6.6V7.6h6.6v7h1.6l4-7h7.2l-6.1 9.9 6.2 10h-7.2l-4.2-7.1H415v7.1zM448 27.5h-6.6v-6c0-1.3.1-2.4.2-3.4l-6.7 9.3h-5.5V7.5h6.6v5.9c0 1.3-.1 2.5-.2 3.4l6.7-9.3h5.5v20zM463.4 21.5c0-1.3.1-2.4.2-3.4l-6.7 9.3h-5.5V7.5h6.6v5.9c0 1.3-.1 2.5-.2 3.4l6.7-9.3h5.5v19.9h-6.6v-5.9zM465.9.9c-1.4.9-3.1 1.3-5.1 1.3-2 0-3.7-.4-5.1-1.3V5c1.5 1 3.2 1.4 5.1 1.4 2 0 3.7-.5 5.1-1.4V.9zM233 65.4h-5.8v-3.9h-15.1V41.6h6.6v14.1h5.4V41.6h6.6v14.1h2.4v9.7h-.1zM235.5 41.7h15.1v5.2h-8.5v2.3h7.5V54h-7.5v2.4h8.7v5.2h-15.2V41.7h-.1zM265.5 41.7h6.5v19.9h-6.5v-7.1h-5.4v7.1h-6.6V41.7h6.6v7.1h5.4v-7.1zM274.1 41.7h17.2v5.7H286v14.1h-6.5V47.4h-5.3v-5.7h-.1zM293.5 41.7h8.7c5.9 0 8.9 2.5 8.9 7.4s-3 7.3-8.9 7.3h-2.1v5.2h-6.6V41.7zm11.1 7.4c0-1.3-.8-2-2.5-2H300V51h2.1c1.7 0 2.5-.7 2.5-1.9zM.1 7.3v283H182V7.3H.1zm166.9 259L125.3 215l-46.9 58.3-34-84.5-29.2 65.1v-74.4c12-.7 22.8-5.7 31-13.4 1.3-1.3 2.6-2.6 3.8-4 7.2-8.6 11.6-19.6 11.6-31.7 0-26.2-20.6-47.6-46.4-49.1v-20c36.9 1.5 66.4 31.9 66.4 69.1 0 19.6-8.2 37.4-21.4 50-.7.6-1.3 1.2-2 1.8-.3.2-.5.5-.8.7l5.9 14.5c.3-.2.5-.4.8-.6.7-.6 1.4-1.1 2.1-1.7 18.6-15.5 30.5-38.7 30.5-64.8 0-45.5-36.3-82.6-81.4-84.1V22.3c58.3 1.5 105.3 49.4 105.3 108.1 0 36.1-17.8 68.2-45.1 87.8-.7.5-1.4 1-2.2 1.5-.3.2-.6.4-.8.6l5.7 14.2.9-.6c.7-.5 1.5-.9 2.2-1.4 32.8-22.1 54.4-59.6 54.4-102.1 0-46.6-26-87.2-64.3-108.1h95.8v244h-.2zM15.1 96.3c17.5 1.4 31.4 16.2 31.4 34.1 0 17.9-13.8 32.6-31.4 34.1V96.3zm139.9 179H96l29.3-36.4 29.7 36.4zm-92 0H21.9l21.7-48.2L63 275.3z"/></svg><svg viewBox="0 0 471 291" id="logo-dark" xmlns="http://www.w3.org/2000/svg"><path d="M212.1 103.1c0-5.5 2-9.7 6-12.5 4-2.9 9.1-4.3 15.3-4.3 7.7 0 14.4 1.5 19.9 4.5v15.5c-5.6-3.6-11.6-5.3-18-5.2-3.2 0-4.8.8-4.8 2.4 0 .7.5 1.4 1.5 2 1 .6 2.2 1.1 3.8 1.6 1.5.5 3.2 1 5.1 1.5 1.9.5 3.8 1.3 5.7 2.1 1.9.9 3.6 1.9 5.1 3.1 1.5 1.2 2.8 2.8 3.8 4.8s1.5 4.3 1.5 6.8c0 11.7-7.6 17.6-22.8 17.6-8.3 0-15.5-1.7-21.6-5.1v-16.2c6.5 4.2 13.1 6.4 19.8 6.4 2.3 0 3.9-.2 4.8-.6.9-.4 1.4-1.1 1.4-2 0-.8-.6-1.6-1.9-2.3-1.3-.7-2.9-1.3-4.9-1.8-2-.5-4.1-1.2-6.4-2.1-2.3-.9-4.4-2-6.4-3.2-2-1.2-3.6-2.9-4.9-5.2-1.4-2.3-2-4.9-2-7.8zM262.8 87.5h41.1v14.1h-23.2v6.3h20.4v13.2h-20.4v6.4h23.7v14.3h-41.6V87.5zM345.1 141.8h-18.3l-19.9-54.3h19l10.1 33.3 10-33.3h19l-19.9 54.3zM368.9 87.5H410v14.1h-23.2v6.3h20.4v13.2h-20.4v6.4h23.7v14.3h-41.6V87.5zM435.1 141.8h-17.9V87.5h25.2c3.1 0 5.9.3 8.5.9 2.6.6 5 1.6 7.3 3s4.1 3.4 5.4 6c1.3 2.6 1.9 5.7 1.9 9.2 0 7.7-3.1 13.1-9.3 16.2l14 18.9h-19.7l-11.2-16.1h-4.2v16.2zm0-39.7v10.2h6.9c1.7 0 3.1-.5 4-1.4 1-.9 1.5-2.2 1.5-3.7 0-1.6-.5-2.8-1.5-3.7-1-.9-2.3-1.4-4-1.4h-6.9zM246.2 161.7H264V216h-17.8v-19.3h-14.7V216h-17.9v-54.3h17.9V181h14.7v-19.3zM296 216h-23.7v-54.3h17.9v15.5h5.8c15.6 0 23.4 6.5 23.4 19.4.1 13-7.7 19.4-23.4 19.4zm-5.8-24v9.3h5.7c1.7 0 3.1-.4 4.2-1.2 1.1-.8 1.7-1.9 1.7-3.5s-.6-2.7-1.7-3.5c-1.1-.8-2.5-1.2-4.2-1.2h-5.7v.1zm50.5 24h-17.9v-54.3h17.9V216zM382 199.7c0-3.5.2-6.6.5-9.2L364.1 216H349v-54.3h17.9v16.2c0 3.6-.2 6.7-.5 9.3l18.4-25.5h15.1V216H382v-16.3zm6.8-56.2c-3.9 2.4-8.6 3.6-14 3.6-5.5 0-10.2-1.2-14-3.6v11.1c4 2.6 8.7 4 14 4 5.4 0 10.1-1.3 14-4v-11.1zM259.8 236h15.9v54.3h-17.5v-24.8l-8.9 13.8h-9.4l-8.9-13.9v24.9h-17.5V236h15.9l15.1 23.7 15.3-23.7zM283.9 236h17.9v54.3h-17.9V236zM328 290.3h-17.9V236h25.2c3.1 0 5.9.3 8.5.9 2.6.6 5 1.6 7.3 3s4.1 3.4 5.4 6c1.3 2.6 1.9 5.7 1.9 9.2 0 7.7-3.1 13.1-9.3 16.2l14 18.9h-19.7l-11.2-16.1H328v16.2zm0-39.7v10.2h6.9c1.7 0 3.1-.5 4-1.4 1-.9 1.5-2.2 1.5-3.7 0-1.6-.5-2.8-1.5-3.7-1-.9-2.3-1.4-4-1.4H328zM399.9 250.5c0 8-6.5 14.5-14.5 14.5s-14.5-6.5-14.5-14.5 6.5-14.5 14.5-14.5 14.5 6.5 14.5 14.5zm-3.4 0c0-6.1-4.9-11.1-11.1-11.1-6.1 0-11.1 5-11.1 11.1 0 6.2 5 11.2 11.1 11.2 6.2-.1 11.1-5.1 11.1-11.2zm-7.5 1.8l3.5 4.9h-5.1l-3.1-4.4h-.4v4.4h-4.3v-13.5h7.5c2.8 0 4.6 1.7 4.6 4.6.1 2-1.1 3.4-2.7 4zm-2.9-5H384v2.3h2.1c.9 0 1.2-.4 1.2-1.2 0-.7-.4-1.1-1.2-1.1zM218.6 27.5h-6.5V7.6h18.6v19.9h-6.5V13.4h-5.6v14.1zM234 7.6h8.7c5.9 0 8.9 2.5 8.9 7.4s-3 7.3-8.9 7.3h-2.1v5.2H234V7.6zm11.1 7.4c0-1.3-.8-2-2.5-2h-2.1v3.9h2.1c1.7 0 2.5-.7 2.5-1.9zM255.9 25c-1.9-2-2.8-4.4-2.8-7.5 0-3 .9-5.5 2.8-7.5s4.5-2.9 8-2.9c3.4 0 6.1 1 8 2.9 1.9 2 2.8 4.4 2.8 7.5 0 3-.9 5.5-2.8 7.5s-4.5 2.9-8 2.9-6.1-.9-8-2.9zm10.9-4.2c.7-.8 1.1-1.9 1.1-3.3s-.4-2.5-1.1-3.3c-.7-.8-1.7-1.2-3-1.2s-2.3.4-3 1.2c-.7.8-1.1 1.9-1.1 3.3s.4 2.5 1.1 3.3c.7.8 1.7 1.2 3 1.2s2.3-.4 3-1.2zM281.3 31.4h-5.8V22h2.4c1.1-2.1 1.9-4.3 2.3-6.6.4-2.3.6-4.9.6-7.7h15.1V22h2.6v9.4h-5.8v-3.9h-11.3v3.9h-.1zm5.3-18.2c-.3 3.9-1 6.8-2 8.8h4.8v-8.8h-2.8zM329.4 12.3c.8 1.5 1.2 3.3 1.2 5.2 0 2-.4 3.7-1.2 5.2-.8 1.5-2 2.8-3.7 3.7-1.7.9-3.6 1.4-6 1.4-2.8 0-5-.7-6.8-2.1-1.8-1.4-2.9-3.2-3.4-5.4h-2.1v7.1h-6.6V7.5h6.6v7.1h2.1c.5-2.2 1.6-4 3.4-5.4 1.8-1.4 4-2.1 6.8-2.1 2.3 0 4.3.5 6 1.4 1.7 1 2.9 2.3 3.7 3.8zm-12.6 2c-.7.8-1.1 1.9-1.1 3.3s.4 2.5 1.1 3.3c.7.8 1.7 1.2 3 1.2s2.3-.4 3-1.2c.7-.8 1.1-1.9 1.1-3.3s-.4-2.5-1.1-3.3c-.7-.8-1.7-1.2-3-1.2s-2.3.4-3 1.2zM332.2 17.7c0-1.8.3-3.4.9-4.8.6-1.4 1.4-2.5 2.5-3.3 1.1-.8 2.2-1.4 3.5-1.8 1.3-.4 2.6-.6 4-.6 2.1 0 4.1.4 5.9 1.2v5.9c-1.3-.9-2.9-1.4-4.7-1.4-1.5 0-2.8.4-3.8 1.2-1 .8-1.5 2-1.5 3.7 0 1.5.5 2.6 1.5 3.3 1 .7 2.2 1.1 3.7 1.1 2.3 0 3.9-.5 5-1.4v6c-1.8.8-3.7 1.2-5.8 1.2-1.5 0-2.8-.2-4.1-.6-1.3-.4-2.5-1-3.5-1.8-1.1-.8-1.9-1.9-2.5-3.2-.7-1.4-1.1-2.9-1.1-4.7zM351.8 7.6h15.1v5.2h-8.5v2.3h7.5v4.8h-7.5v2.4h8.7v5.2h-15.2V7.6h-.1zM369.7 7.6h8.7c5.9 0 8.9 2.5 8.9 7.4s-3 7.3-8.9 7.3h-2.1v5.2h-6.6V7.6zm11.2 7.4c0-1.3-.8-2-2.5-2h-2.1v3.9h2.1c1.6 0 2.5-.7 2.5-1.9zM388.9 17.7c0-1.8.3-3.4.9-4.8.6-1.4 1.4-2.5 2.5-3.3 1.1-.8 2.2-1.4 3.5-1.8 1.3-.4 2.6-.6 4-.6 2.1 0 4.1.4 5.9 1.2v5.9c-1.3-.9-2.9-1.4-4.7-1.4-1.5 0-2.8.4-3.8 1.2-1 .8-1.5 2-1.5 3.7 0 1.5.5 2.6 1.5 3.3 1 .7 2.2 1.1 3.7 1.1 2.3 0 3.9-.5 5-1.4v6c-1.8.8-3.7 1.2-5.8 1.2-1.5 0-2.8-.2-4.1-.6-1.3-.4-2.5-1-3.5-1.8-1.1-.8-1.9-1.9-2.5-3.2-.8-1.4-1.1-2.9-1.1-4.7zM415 27.5h-6.6V7.6h6.6v7h1.6l4-7h7.2l-6.1 9.9 6.2 10h-7.2l-4.2-7.1H415v7.1zM448 27.5h-6.6v-6c0-1.3.1-2.4.2-3.4l-6.7 9.3h-5.5V7.5h6.6v5.9c0 1.3-.1 2.5-.2 3.4l6.7-9.3h5.5v20zM463.4 21.5c0-1.3.1-2.4.2-3.4l-6.7 9.3h-5.5V7.5h6.6v5.9c0 1.3-.1 2.5-.2 3.4l6.7-9.3h5.5v19.9h-6.6v-5.9zM465.9.9c-1.4.9-3.1 1.3-5.1 1.3-2 0-3.7-.4-5.1-1.3V5c1.5 1 3.2 1.4 5.1 1.4 2 0 3.7-.5 5.1-1.4V.9zM233 65.4h-5.8v-3.9h-15.1V41.6h6.6v14.1h5.4V41.6h6.6v14.1h2.4v9.7h-.1zM235.5 41.7h15.1v5.2h-8.5v2.3h7.5V54h-7.5v2.4h8.7v5.2h-15.2V41.7h-.1zM265.5 41.7h6.5v19.9h-6.5v-7.1h-5.4v7.1h-6.6V41.7h6.6v7.1h5.4v-7.1zM274.1 41.7h17.2v5.7H286v14.1h-6.5V47.4h-5.3v-5.7h-.1zM293.5 41.7h8.7c5.9 0 8.9 2.5 8.9 7.4s-3 7.3-8.9 7.3h-2.1v5.2h-6.6V41.7zm11.1 7.4c0-1.3-.8-2-2.5-2H300V51h2.1c1.7 0 2.5-.7 2.5-1.9zM.1 7.3v283H182V7.3H.1zm166.9 259L125.3 215l-46.9 58.3-34-84.5-29.2 65.1v-74.4c12-.7 22.8-5.7 31-13.4 1.3-1.3 2.6-2.6 3.8-4 7.2-8.6 11.6-19.6 11.6-31.7 0-26.2-20.6-47.6-46.4-49.1v-20c36.9 1.5 66.4 31.9 66.4 69.1 0 19.6-8.2 37.4-21.4 50-.7.6-1.3 1.2-2 1.8-.3.2-.5.5-.8.7l5.9 14.5c.3-.2.5-.4.8-.6.7-.6 1.4-1.1 2.1-1.7 18.6-15.5 30.5-38.7 30.5-64.8 0-45.5-36.3-82.6-81.4-84.1V22.3c58.3 1.5 105.3 49.4 105.3 108.1 0 36.1-17.8 68.2-45.1 87.8-.7.5-1.4 1-2.2 1.5-.3.2-.6.4-.8.6l5.7 14.2.9-.6c.7-.5 1.5-.9 2.2-1.4 32.8-22.1 54.4-59.6 54.4-102.1 0-46.6-26-87.2-64.3-108.1h95.8v244h-.2zM15.1 96.3c17.5 1.4 31.4 16.2 31.4 34.1 0 17.9-13.8 32.6-31.4 34.1V96.3zm139.9 179H96l29.3-36.4 29.7 36.4zm-92 0H21.9l21.7-48.2L63 275.3z"/></svg><svg viewBox="0 0 471 291" id="logo-white" xmlns="http://www.w3.org/2000/svg"><path d="M212.1 103.1c0-5.5 2-9.7 6-12.5 4-2.9 9.1-4.3 15.3-4.3 7.7 0 14.4 1.5 19.9 4.5v15.5c-5.6-3.6-11.6-5.3-18-5.2-3.2 0-4.8.8-4.8 2.4 0 .7.5 1.4 1.5 2 1 .6 2.2 1.1 3.8 1.6 1.5.5 3.2 1 5.1 1.5 1.9.5 3.8 1.3 5.7 2.1 1.9.9 3.6 1.9 5.1 3.1 1.5 1.2 2.8 2.8 3.8 4.8s1.5 4.3 1.5 6.8c0 11.7-7.6 17.6-22.8 17.6-8.3 0-15.5-1.7-21.6-5.1v-16.2c6.5 4.2 13.1 6.4 19.8 6.4 2.3 0 3.9-.2 4.8-.6.9-.4 1.4-1.1 1.4-2 0-.8-.6-1.6-1.9-2.3-1.3-.7-2.9-1.3-4.9-1.8-2-.5-4.1-1.2-6.4-2.1-2.3-.9-4.4-2-6.4-3.2-2-1.2-3.6-2.9-4.9-5.2-1.4-2.3-2-4.9-2-7.8zM262.8 87.5h41.1v14.1h-23.2v6.3h20.4v13.2h-20.4v6.4h23.7v14.3h-41.6V87.5zM345.1 141.8h-18.3l-19.9-54.3h19l10.1 33.3 10-33.3h19l-19.9 54.3zM368.9 87.5H410v14.1h-23.2v6.3h20.4v13.2h-20.4v6.4h23.7v14.3h-41.6V87.5zM435.1 141.8h-17.9V87.5h25.2c3.1 0 5.9.3 8.5.9 2.6.6 5 1.6 7.3 3s4.1 3.4 5.4 6c1.3 2.6 1.9 5.7 1.9 9.2 0 7.7-3.1 13.1-9.3 16.2l14 18.9h-19.7l-11.2-16.1h-4.2v16.2zm0-39.7v10.2h6.9c1.7 0 3.1-.5 4-1.4 1-.9 1.5-2.2 1.5-3.7 0-1.6-.5-2.8-1.5-3.7-1-.9-2.3-1.4-4-1.4h-6.9zM246.2 161.7H264V216h-17.8v-19.3h-14.7V216h-17.9v-54.3h17.9V181h14.7v-19.3zM296 216h-23.7v-54.3h17.9v15.5h5.8c15.6 0 23.4 6.5 23.4 19.4.1 13-7.7 19.4-23.4 19.4zm-5.8-24v9.3h5.7c1.7 0 3.1-.4 4.2-1.2 1.1-.8 1.7-1.9 1.7-3.5s-.6-2.7-1.7-3.5c-1.1-.8-2.5-1.2-4.2-1.2h-5.7v.1zm50.5 24h-17.9v-54.3h17.9V216zM382 199.7c0-3.5.2-6.6.5-9.2L364.1 216H349v-54.3h17.9v16.2c0 3.6-.2 6.7-.5 9.3l18.4-25.5h15.1V216H382v-16.3zm6.8-56.2c-3.9 2.4-8.6 3.6-14 3.6-5.5 0-10.2-1.2-14-3.6v11.1c4 2.6 8.7 4 14 4 5.4 0 10.1-1.3 14-4v-11.1zM259.8 236h15.9v54.3h-17.5v-24.8l-8.9 13.8h-9.4l-8.9-13.9v24.9h-17.5V236h15.9l15.1 23.7 15.3-23.7zM283.9 236h17.9v54.3h-17.9V236zM328 290.3h-17.9V236h25.2c3.1 0 5.9.3 8.5.9 2.6.6 5 1.6 7.3 3s4.1 3.4 5.4 6c1.3 2.6 1.9 5.7 1.9 9.2 0 7.7-3.1 13.1-9.3 16.2l14 18.9h-19.7l-11.2-16.1H328v16.2zm0-39.7v10.2h6.9c1.7 0 3.1-.5 4-1.4 1-.9 1.5-2.2 1.5-3.7 0-1.6-.5-2.8-1.5-3.7-1-.9-2.3-1.4-4-1.4H328zM399.9 250.5c0 8-6.5 14.5-14.5 14.5s-14.5-6.5-14.5-14.5 6.5-14.5 14.5-14.5 14.5 6.5 14.5 14.5zm-3.4 0c0-6.1-4.9-11.1-11.1-11.1-6.1 0-11.1 5-11.1 11.1 0 6.2 5 11.2 11.1 11.2 6.2-.1 11.1-5.1 11.1-11.2zm-7.5 1.8l3.5 4.9h-5.1l-3.1-4.4h-.4v4.4h-4.3v-13.5h7.5c2.8 0 4.6 1.7 4.6 4.6.1 2-1.1 3.4-2.7 4zm-2.9-5H384v2.3h2.1c.9 0 1.2-.4 1.2-1.2 0-.7-.4-1.1-1.2-1.1zM218.6 27.5h-6.5V7.6h18.6v19.9h-6.5V13.4h-5.6v14.1zM234 7.6h8.7c5.9 0 8.9 2.5 8.9 7.4s-3 7.3-8.9 7.3h-2.1v5.2H234V7.6zm11.1 7.4c0-1.3-.8-2-2.5-2h-2.1v3.9h2.1c1.7 0 2.5-.7 2.5-1.9zM255.9 25c-1.9-2-2.8-4.4-2.8-7.5 0-3 .9-5.5 2.8-7.5s4.5-2.9 8-2.9c3.4 0 6.1 1 8 2.9 1.9 2 2.8 4.4 2.8 7.5 0 3-.9 5.5-2.8 7.5s-4.5 2.9-8 2.9-6.1-.9-8-2.9zm10.9-4.2c.7-.8 1.1-1.9 1.1-3.3s-.4-2.5-1.1-3.3c-.7-.8-1.7-1.2-3-1.2s-2.3.4-3 1.2c-.7.8-1.1 1.9-1.1 3.3s.4 2.5 1.1 3.3c.7.8 1.7 1.2 3 1.2s2.3-.4 3-1.2zM281.3 31.4h-5.8V22h2.4c1.1-2.1 1.9-4.3 2.3-6.6.4-2.3.6-4.9.6-7.7h15.1V22h2.6v9.4h-5.8v-3.9h-11.3v3.9h-.1zm5.3-18.2c-.3 3.9-1 6.8-2 8.8h4.8v-8.8h-2.8zM329.4 12.3c.8 1.5 1.2 3.3 1.2 5.2 0 2-.4 3.7-1.2 5.2-.8 1.5-2 2.8-3.7 3.7-1.7.9-3.6 1.4-6 1.4-2.8 0-5-.7-6.8-2.1-1.8-1.4-2.9-3.2-3.4-5.4h-2.1v7.1h-6.6V7.5h6.6v7.1h2.1c.5-2.2 1.6-4 3.4-5.4 1.8-1.4 4-2.1 6.8-2.1 2.3 0 4.3.5 6 1.4 1.7 1 2.9 2.3 3.7 3.8zm-12.6 2c-.7.8-1.1 1.9-1.1 3.3s.4 2.5 1.1 3.3c.7.8 1.7 1.2 3 1.2s2.3-.4 3-1.2c.7-.8 1.1-1.9 1.1-3.3s-.4-2.5-1.1-3.3c-.7-.8-1.7-1.2-3-1.2s-2.3.4-3 1.2zM332.2 17.7c0-1.8.3-3.4.9-4.8.6-1.4 1.4-2.5 2.5-3.3 1.1-.8 2.2-1.4 3.5-1.8 1.3-.4 2.6-.6 4-.6 2.1 0 4.1.4 5.9 1.2v5.9c-1.3-.9-2.9-1.4-4.7-1.4-1.5 0-2.8.4-3.8 1.2-1 .8-1.5 2-1.5 3.7 0 1.5.5 2.6 1.5 3.3 1 .7 2.2 1.1 3.7 1.1 2.3 0 3.9-.5 5-1.4v6c-1.8.8-3.7 1.2-5.8 1.2-1.5 0-2.8-.2-4.1-.6-1.3-.4-2.5-1-3.5-1.8-1.1-.8-1.9-1.9-2.5-3.2-.7-1.4-1.1-2.9-1.1-4.7zM351.8 7.6h15.1v5.2h-8.5v2.3h7.5v4.8h-7.5v2.4h8.7v5.2h-15.2V7.6h-.1zM369.7 7.6h8.7c5.9 0 8.9 2.5 8.9 7.4s-3 7.3-8.9 7.3h-2.1v5.2h-6.6V7.6zm11.2 7.4c0-1.3-.8-2-2.5-2h-2.1v3.9h2.1c1.6 0 2.5-.7 2.5-1.9zM388.9 17.7c0-1.8.3-3.4.9-4.8.6-1.4 1.4-2.5 2.5-3.3 1.1-.8 2.2-1.4 3.5-1.8 1.3-.4 2.6-.6 4-.6 2.1 0 4.1.4 5.9 1.2v5.9c-1.3-.9-2.9-1.4-4.7-1.4-1.5 0-2.8.4-3.8 1.2-1 .8-1.5 2-1.5 3.7 0 1.5.5 2.6 1.5 3.3 1 .7 2.2 1.1 3.7 1.1 2.3 0 3.9-.5 5-1.4v6c-1.8.8-3.7 1.2-5.8 1.2-1.5 0-2.8-.2-4.1-.6-1.3-.4-2.5-1-3.5-1.8-1.1-.8-1.9-1.9-2.5-3.2-.8-1.4-1.1-2.9-1.1-4.7zM415 27.5h-6.6V7.6h6.6v7h1.6l4-7h7.2l-6.1 9.9 6.2 10h-7.2l-4.2-7.1H415v7.1zM448 27.5h-6.6v-6c0-1.3.1-2.4.2-3.4l-6.7 9.3h-5.5V7.5h6.6v5.9c0 1.3-.1 2.5-.2 3.4l6.7-9.3h5.5v20zM463.4 21.5c0-1.3.1-2.4.2-3.4l-6.7 9.3h-5.5V7.5h6.6v5.9c0 1.3-.1 2.5-.2 3.4l6.7-9.3h5.5v19.9h-6.6v-5.9zM465.9.9c-1.4.9-3.1 1.3-5.1 1.3-2 0-3.7-.4-5.1-1.3V5c1.5 1 3.2 1.4 5.1 1.4 2 0 3.7-.5 5.1-1.4V.9zM233 65.4h-5.8v-3.9h-15.1V41.6h6.6v14.1h5.4V41.6h6.6v14.1h2.4v9.7h-.1zM235.5 41.7h15.1v5.2h-8.5v2.3h7.5V54h-7.5v2.4h8.7v5.2h-15.2V41.7h-.1zM265.5 41.7h6.5v19.9h-6.5v-7.1h-5.4v7.1h-6.6V41.7h6.6v7.1h5.4v-7.1zM274.1 41.7h17.2v5.7H286v14.1h-6.5V47.4h-5.3v-5.7h-.1zM293.5 41.7h8.7c5.9 0 8.9 2.5 8.9 7.4s-3 7.3-8.9 7.3h-2.1v5.2h-6.6V41.7zm11.1 7.4c0-1.3-.8-2-2.5-2H300V51h2.1c1.7 0 2.5-.7 2.5-1.9zM.1 7.3v283H182V7.3H.1zm166.9 259L125.3 215l-46.9 58.3-34-84.5-29.2 65.1v-74.4c12-.7 22.8-5.7 31-13.4 1.3-1.3 2.6-2.6 3.8-4 7.2-8.6 11.6-19.6 11.6-31.7 0-26.2-20.6-47.6-46.4-49.1v-20c36.9 1.5 66.4 31.9 66.4 69.1 0 19.6-8.2 37.4-21.4 50-.7.6-1.3 1.2-2 1.8-.3.2-.5.5-.8.7l5.9 14.5c.3-.2.5-.4.8-.6.7-.6 1.4-1.1 2.1-1.7 18.6-15.5 30.5-38.7 30.5-64.8 0-45.5-36.3-82.6-81.4-84.1V22.3c58.3 1.5 105.3 49.4 105.3 108.1 0 36.1-17.8 68.2-45.1 87.8-.7.5-1.4 1-2.2 1.5-.3.2-.6.4-.8.6l5.7 14.2.9-.6c.7-.5 1.5-.9 2.2-1.4 32.8-22.1 54.4-59.6 54.4-102.1 0-46.6-26-87.2-64.3-108.1h95.8v244h-.2zM15.1 96.3c17.5 1.4 31.4 16.2 31.4 34.1 0 17.9-13.8 32.6-31.4 34.1V96.3zm139.9 179H96l29.3-36.4 29.7 36.4zm-92 0H21.9l21.7-48.2L63 275.3z"/></svg></svg>