<svg width="123" height="123" viewBox="0 0 123 123" fill="none" xmlns="http://www.w3.org/2000/svg">
<g clip-path="url(#clip0_2040_9)">
<path d="M61.4401 8.87564e-06C75.66 -0.00405582 89.4414 4.92286 100.436 13.9412C111.43 22.9595 118.957 35.5111 121.734 49.4573C124.511 63.4034 122.367 77.881 115.665 90.4229C108.964 102.965 98.1215 112.795 84.9847 118.239C71.8479 123.682 57.23 124.402 43.622 120.275C30.014 116.149 18.258 107.431 10.3573 95.6079C2.45649 83.7849 -1.1001 69.588 0.293534 55.4366C1.68717 41.2851 7.9448 28.0547 18.0001 18C23.6981 12.2861 30.4691 7.7544 37.924 4.66537C45.3788 1.57634 53.3706 -0.00914277 61.4401 8.87564e-06ZM88.6001 56.82V66.06C88.6001 67.1209 88.1787 68.1383 87.4285 68.8884C86.6784 69.6386 85.6609 70.06 84.6001 70.06H70.0001V84.62C70.0001 85.6809 69.5787 86.6983 68.8285 87.4484C68.0784 88.1986 67.0609 88.62 66.0001 88.62H56.8201C55.7592 88.62 54.7418 88.1986 53.9917 87.4484C53.2415 86.6983 52.8201 85.6809 52.8201 84.62V70H38.2601C37.1992 70 36.1818 69.5786 35.4317 68.8284C34.6815 68.0783 34.2601 67.0609 34.2601 66V56.82C34.2601 55.7591 34.6815 54.7417 35.4317 53.9916C36.1818 53.2414 37.1992 52.82 38.2601 52.82H52.8401V38.26C52.8401 37.1991 53.2615 36.1817 54.0117 35.4316C54.7618 34.6814 55.7792 34.26 56.8401 34.26H66.0801C67.141 34.26 68.1584 34.6814 68.9085 35.4316C69.6587 36.1817 70.0801 37.1991 70.0801 38.26V52.84H84.6201C85.681 52.84 86.6984 53.2614 87.4485 54.0116C88.1987 54.7617 88.6201 55.7791 88.6201 56.84L88.6001 56.82ZM97.4301 25.45C89.1028 17.1162 78.1435 11.9278 66.4195 10.7688C54.6956 9.60976 42.9325 12.5519 33.1346 19.0939C23.3368 25.6358 16.1105 35.3728 12.6872 46.6456C9.26388 57.9183 9.85532 70.0294 14.3607 80.915C18.8662 91.8005 27.0068 100.787 37.3954 106.343C47.784 111.899 59.7779 113.681 71.3331 111.386C82.8884 109.09 93.29 102.858 100.766 93.7526C108.241 84.6471 112.328 73.2311 112.33 61.45C112.339 54.7639 111.027 48.142 108.47 41.9641C105.913 35.7863 102.161 30.1742 97.4301 25.45Z" fill="#1FC150"/>
</g>
<defs>
<clipPath id="clip0_2040_9">
<rect width="122.88" height="122.88" fill="white"/>
</clipPath>
</defs>
</svg>
