<svg width="11" height="11" viewBox="0 0 11 11" fill="none" xmlns="http://www.w3.org/2000/svg">
<path opacity="1" d="M4.26953 10.9434C4.03906 10.9434 3.83594 10.8301 3.66016 10.6035L0.619141 6.73047C0.560547 6.66016 0.517578 6.58984 0.490234 6.51953C0.462891 6.44531 0.449219 6.37305 0.449219 6.30273C0.449219 6.14258 0.501953 6.01172 0.607422 5.91016C0.712891 5.80469 0.847656 5.75195 1.01172 5.75195C1.20703 5.75195 1.375 5.84766 1.51562 6.03906L4.24609 9.61328L9.50781 1.22852C9.57812 1.11914 9.65039 1.04297 9.72461 1C9.79883 0.953125 9.89453 0.929688 10.0117 0.929688C10.1719 0.929688 10.3008 0.978516 10.3984 1.07617C10.4961 1.17383 10.5449 1.30273 10.5449 1.46289C10.5449 1.5332 10.5332 1.60352 10.5098 1.67383C10.4863 1.74023 10.4492 1.81445 10.3984 1.89648L4.86133 10.6152C4.7168 10.834 4.51953 10.9434 4.26953 10.9434Z" fill="#3395ff"/>
</svg>
