<svg width="471" height="291" viewBox="0 0 471 291" fill="none" xmlns="http://www.w3.org/2000/svg">
<path d="M212.1 103.1C212.1 97.5998 214.1 93.3998 218.1 90.5998C222.1 87.6998 227.2 86.2998 233.4 86.2998C241.1 86.2998 247.8 87.7998 253.3 90.7998V106.3C247.7 102.7 241.7 101 235.3 101.1C232.1 101.1 230.5 101.9 230.5 103.5C230.5 104.2 231 104.9 232 105.5C233 106.1 234.2 106.6 235.8 107.1C237.3 107.6 239 108.1 240.9 108.6C242.8 109.1 244.7 109.9 246.6 110.7C248.5 111.6 250.2 112.6 251.7 113.8C253.2 115 254.5 116.6 255.5 118.6C256.5 120.6 257 122.9 257 125.4C257 137.1 249.4 143 234.2 143C225.9 143 218.7 141.3 212.6 137.9V121.7C219.1 125.9 225.7 128.1 232.4 128.1C234.7 128.1 236.3 127.9 237.2 127.5C238.1 127.1 238.6 126.4 238.6 125.5C238.6 124.7 238 123.9 236.7 123.2C235.4 122.5 233.8 121.9 231.8 121.4C229.8 120.9 227.7 120.2 225.4 119.3C223.1 118.4 221 117.3 219 116.1C217 114.9 215.4 113.2 214.1 110.9C212.7 108.6 212.1 106 212.1 103.1Z" fill="white" style="fill:white;fill-opacity:1;"/>
<path d="M262.8 87.4998H303.9V101.6H280.7V107.9H301.1V121.1H280.7V127.5H304.4V141.8H262.8V87.4998Z" fill="white" style="fill:white;fill-opacity:1;"/>
<path d="M345.1 141.8H326.8L306.9 87.4998H325.9L336 120.8L346 87.4998H365L345.1 141.8Z" fill="white" style="fill:white;fill-opacity:1;"/>
<path d="M368.9 87.4998H410V101.6H386.8V107.9H407.2V121.1H386.8V127.5H410.5V141.8H368.9V87.4998Z" fill="white" style="fill:white;fill-opacity:1;"/>
<path d="M435.1 141.8H417.2V87.4998H442.4C445.5 87.4998 448.3 87.7997 450.9 88.3997C453.5 88.9997 455.9 89.9997 458.2 91.3997C460.5 92.7997 462.3 94.7997 463.6 97.3997C464.9 99.9997 465.5 103.1 465.5 106.6C465.5 114.3 462.4 119.7 456.2 122.8L470.2 141.7H450.5L439.3 125.6H435.1V141.8ZM435.1 102.1V112.3H442C443.7 112.3 445.1 111.8 446 110.9C447 110 447.5 108.7 447.5 107.2C447.5 105.6 447 104.4 446 103.5C445 102.6 443.7 102.1 442 102.1H435.1Z" fill="white" style="fill:white;fill-opacity:1;"/>
<path d="M246.2 161.7H264V216H246.2V196.7H231.5V216H213.6V161.7H231.5V181H246.2V161.7Z" fill="white" style="fill:white;fill-opacity:1;"/>
<path d="M296 216H272.3V161.7H290.2V177.2H296C311.6 177.2 319.4 183.7 319.4 196.6C319.5 209.6 311.7 216 296 216ZM290.2 192V201.3H295.9C297.6 201.3 299 200.9 300.1 200.1C301.2 199.3 301.8 198.2 301.8 196.6C301.8 195 301.2 193.9 300.1 193.1C299 192.3 297.6 191.9 295.9 191.9H290.2V192ZM340.7 216H322.8V161.7H340.7V216Z" fill="white" style="fill:white;fill-opacity:1;"/>
<path d="M382 199.7C382 196.2 382.2 193.1 382.5 190.5L364.1 216H349V161.7H366.9V177.9C366.9 181.5 366.7 184.6 366.4 187.2L384.8 161.7H399.9V216H382V199.7ZM388.8 143.5C384.9 145.9 380.2 147.1 374.8 147.1C369.3 147.1 364.6 145.9 360.8 143.5V154.6C364.8 157.2 369.5 158.6 374.8 158.6C380.2 158.6 384.9 157.3 388.8 154.6V143.5Z" fill="white" style="fill:white;fill-opacity:1;"/>
<path d="M259.8 236H275.7V290.3H258.2V265.5L249.3 279.3H239.9L231 265.4V290.3H213.5V236H229.4L244.5 259.7L259.8 236Z" fill="white" style="fill:white;fill-opacity:1;"/>
<path d="M283.9 236H301.8V290.3H283.9V236Z" fill="white" style="fill:white;fill-opacity:1;"/>
<path d="M328 290.3H310.1V236H335.3C338.4 236 341.2 236.3 343.8 236.9C346.4 237.5 348.8 238.5 351.1 239.9C353.4 241.3 355.2 243.3 356.5 245.9C357.8 248.5 358.4 251.6 358.4 255.1C358.4 262.8 355.3 268.2 349.1 271.3L363.1 290.2H343.4L332.2 274.1H328V290.3ZM328 250.6V260.8H334.9C336.6 260.8 338 260.3 338.9 259.4C339.9 258.5 340.4 257.2 340.4 255.7C340.4 254.1 339.9 252.9 338.9 252C337.9 251.1 336.6 250.6 334.9 250.6H328Z" fill="white" style="fill:white;fill-opacity:1;"/>
<path d="M399.9 250.5C399.9 258.5 393.4 265 385.4 265C377.4 265 370.9 258.5 370.9 250.5C370.9 242.5 377.4 236 385.4 236C393.4 236 399.9 242.5 399.9 250.5ZM396.5 250.5C396.5 244.4 391.6 239.4 385.4 239.4C379.3 239.4 374.3 244.4 374.3 250.5C374.3 256.7 379.3 261.7 385.4 261.7C391.6 261.6 396.5 256.6 396.5 250.5ZM389 252.3L392.5 257.2H387.4L384.3 252.8H383.9V257.2H379.6V243.7H387.1C389.9 243.7 391.7 245.4 391.7 248.3C391.8 250.3 390.6 251.7 389 252.3ZM386.1 247.3H384V249.6H386.1C387 249.6 387.3 249.2 387.3 248.4C387.3 247.7 386.9 247.3 386.1 247.3Z" fill="white" style="fill:white;fill-opacity:1;"/>
<path d="M218.6 27.4998H212.1V7.59985H230.7V27.4998H224.2V13.3998H218.6V27.4998Z" fill="white" style="fill:white;fill-opacity:1;"/>
<path d="M234 7.59985H242.7C248.6 7.59985 251.6 10.0998 251.6 14.9998C251.6 19.8998 248.6 22.2999 242.7 22.2999H240.6V27.4998H234V7.59985ZM245.1 14.9998C245.1 13.6998 244.3 12.9998 242.6 12.9998H240.5V16.8998H242.6C244.3 16.8998 245.1 16.1998 245.1 14.9998Z" fill="white" style="fill:white;fill-opacity:1;"/>
<path d="M255.9 24.9998C254 22.9998 253.1 20.5998 253.1 17.4998C253.1 14.4998 254 11.9998 255.9 9.99985C257.8 7.99985 260.4 7.09985 263.9 7.09985C267.3 7.09985 270 8.09985 271.9 9.99985C273.8 11.9998 274.7 14.3998 274.7 17.4998C274.7 20.4998 273.8 22.9998 271.9 24.9998C270 26.9998 267.4 27.8998 263.9 27.8998C260.4 27.8998 257.8 26.9998 255.9 24.9998ZM266.8 20.7999C267.5 19.9999 267.9 18.8998 267.9 17.4998C267.9 16.0998 267.5 14.9998 266.8 14.1998C266.1 13.3998 265.1 12.9998 263.8 12.9998C262.5 12.9998 261.5 13.3998 260.8 14.1998C260.1 14.9998 259.7 16.0998 259.7 17.4998C259.7 18.8998 260.1 19.9999 260.8 20.7999C261.5 21.5999 262.5 21.9998 263.8 21.9998C265.1 21.9998 266.1 21.5999 266.8 20.7999Z" fill="white" style="fill:white;fill-opacity:1;"/>
<path d="M281.3 31.3999H275.5V22H277.9C279 19.9 279.8 17.6999 280.2 15.3999C280.6 13.0999 280.8 10.5 280.8 7.69995H295.9V22H298.5V31.3999H292.7V27.5H281.4V31.3999H281.3ZM286.6 13.2C286.3 17.1 285.6 20 284.6 22H289.4V13.2H286.6Z" fill="white" style="fill:white;fill-opacity:1;"/>
<path d="M329.4 12.2999C330.2 13.7999 330.6 15.5998 330.6 17.4998C330.6 19.4998 330.2 21.1998 329.4 22.6998C328.6 24.1998 327.4 25.4998 325.7 26.3998C324 27.2998 322.1 27.7998 319.7 27.7998C316.9 27.7998 314.7 27.0999 312.9 25.6999C311.1 24.2999 310 22.4999 309.5 20.2999H307.4V27.3998H300.8V7.49985H307.4V14.5999H309.5C310 12.3999 311.1 10.5998 312.9 9.19984C314.7 7.79984 316.9 7.09985 319.7 7.09985C322 7.09985 324 7.59985 325.7 8.49985C327.4 9.49985 328.6 10.7999 329.4 12.2999ZM316.8 14.2999C316.1 15.0999 315.7 16.1999 315.7 17.5999C315.7 18.9999 316.1 20.0998 316.8 20.8998C317.5 21.6998 318.5 22.0999 319.8 22.0999C321.1 22.0999 322.1 21.6998 322.8 20.8998C323.5 20.0998 323.9 18.9999 323.9 17.5999C323.9 16.1999 323.5 15.0999 322.8 14.2999C322.1 13.4999 321.1 13.0999 319.8 13.0999C318.5 13.0999 317.5 13.4999 316.8 14.2999Z" fill="white" style="fill:white;fill-opacity:1;"/>
<path d="M332.2 17.7C332.2 15.9 332.5 14.2999 333.1 12.8999C333.7 11.4999 334.5 10.4 335.6 9.59996C336.7 8.79996 337.8 8.19996 339.1 7.79996C340.4 7.39996 341.7 7.19995 343.1 7.19995C345.2 7.19995 347.2 7.59995 349 8.39995V14.3C347.7 13.4 346.1 12.8999 344.3 12.8999C342.8 12.8999 341.5 13.3 340.5 14.1C339.5 14.9 339 16.1 339 17.8C339 19.3 339.5 20.4 340.5 21.1C341.5 21.8 342.7 22.2 344.2 22.2C346.5 22.2 348.1 21.7 349.2 20.8V26.7999C347.4 27.5999 345.5 28 343.4 28C341.9 28 340.6 27.7999 339.3 27.3999C338 26.9999 336.8 26.4 335.8 25.6C334.7 24.8 333.9 23.6999 333.3 22.3999C332.6 20.9999 332.2 19.5 332.2 17.7Z" fill="white" style="fill:white;fill-opacity:1;"/>
<path d="M351.8 7.59985H366.9V12.7999H358.4V15.0999H365.9V19.8998H358.4V22.2999H367.1V27.4998H351.9V7.59985H351.8Z" fill="white" style="fill:white;fill-opacity:1;"/>
<path d="M369.7 7.59985H378.4C384.3 7.59985 387.3 10.0998 387.3 14.9998C387.3 19.8998 384.3 22.2999 378.4 22.2999H376.3V27.4998H369.7V7.59985ZM380.9 14.9998C380.9 13.6998 380.1 12.9998 378.4 12.9998H376.3V16.8998H378.4C380 16.8998 380.9 16.1998 380.9 14.9998Z" fill="white" style="fill:white;fill-opacity:1;"/>
<path d="M388.9 17.7C388.9 15.9 389.2 14.2999 389.8 12.8999C390.4 11.4999 391.2 10.4 392.3 9.59996C393.4 8.79996 394.5 8.19996 395.8 7.79996C397.1 7.39996 398.4 7.19995 399.8 7.19995C401.9 7.19995 403.9 7.59995 405.7 8.39995V14.3C404.4 13.4 402.8 12.8999 401 12.8999C399.5 12.8999 398.2 13.3 397.2 14.1C396.2 14.9 395.7 16.1 395.7 17.8C395.7 19.3 396.2 20.4 397.2 21.1C398.2 21.8 399.4 22.2 400.9 22.2C403.2 22.2 404.8 21.7 405.9 20.8V26.7999C404.1 27.5999 402.2 28 400.1 28C398.6 28 397.3 27.7999 396 27.3999C394.7 26.9999 393.5 26.4 392.5 25.6C391.4 24.8 390.6 23.6999 390 22.3999C389.2 20.9999 388.9 19.5 388.9 17.7Z" fill="white" style="fill:white;fill-opacity:1;"/>
<path d="M415 27.4998H408.4V7.59985H415V14.5999H416.6L420.6 7.59985H427.8L421.7 17.4998L427.9 27.4998H420.7L416.5 20.3998H415V27.4998Z" fill="white" style="fill:white;fill-opacity:1;"/>
<path d="M448 27.5H441.4V21.5C441.4 20.2 441.5 19.1 441.6 18.1L434.9 27.4H429.4V7.5H436V13.4C436 14.7 435.9 15.9 435.8 16.8L442.5 7.5H448V27.5Z" fill="white" style="fill:white;fill-opacity:1;"/>
<path d="M463.4 21.4999C463.4 20.1999 463.5 19.0999 463.6 18.0999L456.9 27.3999H451.4V7.49991H458V13.3999C458 14.6999 457.9 15.8999 457.8 16.7999L464.5 7.49991H470V27.3999H463.4V21.4999ZM465.9 0.899902C464.5 1.7999 462.8 2.19991 460.8 2.19991C458.8 2.19991 457.1 1.7999 455.7 0.899902V4.99991C457.2 5.99991 458.9 6.3999 460.8 6.3999C462.8 6.3999 464.5 5.89991 465.9 4.99991V0.899902Z" fill="white" style="fill:white;fill-opacity:1;"/>
<path d="M233 65.3998H227.2V61.4998H212.1V41.5999H218.7V55.6999H224.1V41.5999H230.7V55.6999H233.1V65.3998H233Z" fill="white" style="fill:white;fill-opacity:1;"/>
<path d="M235.5 41.7H250.6V46.8999H242.1V49.2H249.6V53.9999H242.1V56.3999H250.8V61.5999H235.6V41.7H235.5Z" fill="white" style="fill:white;fill-opacity:1;"/>
<path d="M265.5 41.7H272V61.5999H265.5V54.4999H260.1V61.5999H253.5V41.7H260.1V48.7999H265.5V41.7Z" fill="white" style="fill:white;fill-opacity:1;"/>
<path d="M274.1 41.7H291.3V47.3999H286V61.4999H279.5V47.3999H274.2V41.7H274.1Z" fill="white" style="fill:white;fill-opacity:1;"/>
<path d="M293.5 41.7H302.2C308.1 41.7 311.1 44.1999 311.1 49.0999C311.1 53.9999 308.1 56.3999 302.2 56.3999H300.1V61.5999H293.5V41.7ZM304.6 49.0999C304.6 47.7999 303.8 47.0999 302.1 47.0999H300V50.9999H302.1C303.8 50.9999 304.6 50.2999 304.6 49.0999Z" fill="white" style="fill:white;fill-opacity:1;"/>
<path d="M0.100098 7.30005V290.3H182V7.30005H0.100098ZM167 266.3L125.3 215L78.4001 273.3L44.4001 188.8L15.2001 253.9V179.5C27.2001 178.8 38.0001 173.8 46.2001 166.1C47.5001 164.8 48.8001 163.5 50.0001 162.1C57.2001 153.5 61.6001 142.5 61.6001 130.4C61.6001 104.2 41.0001 82.8 15.2001 81.3V61.3C52.1001 62.8 81.6001 93.2 81.6001 130.4C81.6001 150 73.4001 167.8 60.2001 180.4C59.5001 181 58.9001 181.6 58.2001 182.2C57.9001 182.4 57.7001 182.7 57.4001 182.9L63.3002 197.4C63.6002 197.2 63.8001 197 64.1001 196.8C64.8001 196.2 65.5001 195.7 66.2001 195.1C84.8001 179.6 96.7001 156.4 96.7001 130.3C96.7001 84.8 60.4002 47.7001 15.3002 46.2001V22.3C73.6002 23.8 120.6 71.7 120.6 130.4C120.6 166.5 102.8 198.6 75.5001 218.2C74.8001 218.7 74.1002 219.2 73.3002 219.7C73.0002 219.9 72.7001 220.1 72.5001 220.3L78.2001 234.5C78.5001 234.3 78.8001 234.1 79.1001 233.9C79.8001 233.4 80.6002 233 81.3002 232.5C114.1 210.4 135.7 172.9 135.7 130.4C135.7 83.8 109.7 43.2 71.4001 22.3H167.2V266.3H167ZM15.1001 96.3C32.6001 97.7 46.5001 112.5 46.5001 130.4C46.5001 148.3 32.7001 163 15.1001 164.5V96.3ZM155 275.3H96.0001L125.3 238.9L155 275.3ZM63.0001 275.3H21.9001L43.6001 227.1L63.0001 275.3Z" fill="white" style="fill:white;fill-opacity:1;"/>
</svg>
